<svg xmlns="http://www.w3.org/2000/svg" width="133.002" height="133.001"><defs><linearGradient id="a" x1=".503" x2=".5" y2="1" gradientUnits="objectBoundingBox"><stop offset="0" stop-color="#7024c4"/><stop offset=".415" stop-color="#c21975"/><stop offset=".702" stop-color="#c74c4d"/><stop offset="1" stop-color="#e09b3d"/></linearGradient><filter id="b" x="0" y="0" width="133.002" height="133.001" filterUnits="userSpaceOnUse"><feOffset dy="4"/><feGaussianBlur stdDeviation="4" result="c"/><feFlood flood-opacity=".102"/><feComposite operator="in" in2="c"/><feComposite in="SourceGraphic"/></filter></defs><g filter="url(#b)"><circle cx="54.501" cy="54.501" r="54.501" transform="translate(12 8)" fill="url(#a)"/></g><path d="M76.103 86.258H56.898a14.17 14.17 0 01-14.154-14.155V52.898a14.17 14.17 0 0114.154-14.154h19.205a14.17 14.17 0 0114.155 14.154v19.205a14.17 14.17 0 01-14.155 14.155zM56.898 43.523a9.386 9.386 0 00-9.375 9.375v19.205a9.385 9.385 0 009.375 9.374h19.205a9.384 9.384 0 009.374-9.374V52.898a9.385 9.385 0 00-9.374-9.375zm9.6 31.265A12.288 12.288 0 1178.79 62.501a12.3 12.3 0 01-12.289 12.288zm0-19.8a7.509 7.509 0 107.509 7.509 7.517 7.517 0 00-7.506-7.505zm12.312-1.743a2.945 2.945 0 112.946-2.944 2.948 2.948 0 01-2.943 2.948z" fill="#fff"/></svg>