<svg xmlns="http://www.w3.org/2000/svg" width="28.625" height="32.06"><g id="layer1" transform="translate(-.926 -289.063)"><path id="path1315-0" d="M9.973 289.063v4.8A14.09 14.09 0 00.926 307a14.314 14.314 0 0028.625 0 14.139 14.139 0 00-9.04-13.125v-4.807zm1.805 1.782h6.928v2.455a14.4 14.4 0 00-3.441-.435h-.025a14.586 14.586 0 00-3.462.431zm3.462 3.811c.417 0 .828.022 1.234.059.064 0 .127.017.19.026.269.03.533.075.8.122a12.987 12.987 0 011.819.463A12.328 12.328 0 0127.753 307a12.508 12.508 0 01-25.015 0 12.255 12.255 0 018.416-11.667h.014a13.12 13.12 0 011.851-.466c.238-.043.477-.08.719-.108.093-.013.185-.026.279-.035.4-.039.811-.059 1.223-.059zm-.014 1.827a.924.924 0 00-.18.026A10.544 10.544 0 004.628 306.8a.883.883 0 000 .4 10.538 10.538 0 0010.217 10.275.912.912 0 00.8 0 10.484 10.484 0 00-.208-20.964.91.91 0 00-.215-.026zm-.9 1.848h.021v1.65a.888.888 0 00.433.819.913.913 0 00.936 0 .888.888 0 00.433-.819v-1.65a8.8 8.8 0 017.869 7.769h-1.677a.895.895 0 100 1.789h1.675a8.8 8.8 0 01-7.869 7.769v-1.653a.885.885 0 00-.266-.645.909.909 0 00-.655-.26.9.9 0 00-.881.9v1.653a8.677 8.677 0 01-7.834-7.769H8.15a.895.895 0 100-1.789H6.511a8.678 8.678 0 017.813-7.769zm.9 3.258a.9.9 0 00-.881.9v4.153a.88.88 0 00.018.487.893.893 0 00.486.616l3.363 3.324a.912.912 0 00.889.261.9.9 0 00.655-.648.886.886 0 00-.267-.877l-3.342-3.3v-4.017a.885.885 0 00-.266-.645.908.908 0 00-.655-.259z" fill="#ebebeb"/></g></svg>