<svg xmlns="http://www.w3.org/2000/svg" width="127.001" height="127.001"><defs><filter id="a" x="0" y="0" width="127.001" height="127.001" filterUnits="userSpaceOnUse"><feOffset dy="3"/><feGaussianBlur stdDeviation="3" result="b"/><feFlood flood-opacity=".161"/><feComposite operator="in" in2="b"/><feComposite in="SourceGraphic"/></filter></defs><g filter="url(#a)"><circle cx="54.501" cy="54.501" transform="translate(9 6)" fill="#007ab7" r="54.501"/></g><path d="M74.965 78.668V65.962c0-3.036-.045-6.935-4.21-6.935-4.223 0-4.856 3.309-4.856 6.709v12.932h-8.1V52.531h7.754v3.581h.106a8.519 8.519 0 017.677-4.215c8.207 0 9.73 5.408 9.73 12.449v14.322zm-22.282 0H44.57V52.531h8.115v26.135zm5.1-26.136h.015zm-13.847-8.279a4.706 4.706 0 114.706 4.713 4.715 4.715 0 01-4.706-4.713z" fill="#fff"/></svg>