<svg xmlns="http://www.w3.org/2000/svg" width="36" height="33.835"><path id="money" d="M45.313 39.592a24.144 24.144 0 00-2.021-8.249 23.242 23.242 0 00-4.47-7.1c-1.786-1.814-3.494-2.479-4.816-1.877-.011 0-.022.006-.033.011l-1.551.731v-3.854c0-3.038-4.966-5.328-11.551-5.328s-11.529 2.282-11.55 5.31v6.884a.55.55 0 010 .212c0 .062.005.123.009.184a.679.679 0 00-.009.1v6.865a.559.559 0 010 .213c0 .077.006.154.012.23a.683.683 0 00-.012.123v6.865a.55.55 0 010 .212c0 3.037 4.967 5.327 11.553 5.327 4.184 0 8-1.008 10-2.6 1.8 2.461 3.728 3.912 5.347 3.912a2.443 2.443 0 001.053-.231l6.1-2.876.018-.007c1.328-.628 2.008-2.423 1.921-5.057zM28.038 25.178l-.185.086c-1.274.6-1.917 2.258-1.939 4.528a22.661 22.661 0 01-5.04.551c-6.074 0-10.308-2.114-10.308-4.012a.55.55 0 010-.212v-4.384c1.871 1.72 5.69 2.847 10.307 2.847s8.433-1.126 10.3-2.846V23.7zm-17.482 8.407a.671.671 0 00.01-.107v-4.666c1.872 1.719 5.691 2.846 10.308 2.846a24.149 24.149 0 005.094-.523 23.286 23.286 0 001.273 5.593 19.675 19.675 0 01-6.367.976c-6.074 0-10.308-2.114-10.308-4.011a.672.672 0 00-.01-.108zm10.317-18.346c6.068 0 10.3 2.112 10.305 4.009v.012c-.018 1.9-4.245 4-10.3 4s-10.306-2.116-10.306-4.014 4.228-4.007 10.301-4.007zm0 29.9c-6.074 0-10.308-2.115-10.308-4.013a.55.55 0 010-.212v-4.742c1.872 1.719 5.691 2.845 10.308 2.845a20.784 20.784 0 006.827-1.066q.123.309.254.62a28.145 28.145 0 002.2 4.213c-1.754 1.416-5.381 2.351-9.28 2.351zm16.065 1.112l-.176.085c-1.645.771-5.2-2.446-7.674-8.3s-2.37-10.8-.731-11.569l3.985-1.878a9.3 9.3 0 00-.289 2.847 24.168 24.168 0 002.021 8.252 23.243 23.243 0 004.47 7.1 8.374 8.374 0 002.2 1.67zm5.949-2.8c-.82.383-2.087-.2-3.473-1.613a21.91 21.91 0 01-4.2-6.684 22.789 22.789 0 01-1.914-7.766c-.068-2.034.364-3.422 1.185-3.808a1.274 1.274 0 01.548-.116 4.77 4.77 0 012.928 1.728 21.912 21.912 0 014.2 6.687 22.761 22.761 0 011.914 7.76c.062 2.031-.368 3.418-1.186 3.806z" transform="translate(-9.321 -13.925)" fill="#fff"/></svg>