<svg xmlns="http://www.w3.org/2000/svg" width="127.001" height="127.002"><defs><filter id="a" x="0" y="0" width="127.001" height="127.002" filterUnits="userSpaceOnUse"><feOffset dy="3"/><feGaussianBlur stdDeviation="3" result="b"/><feFlood flood-opacity=".161"/><feComposite operator="in" in2="b"/><feComposite in="SourceGraphic"/></filter></defs><g filter="url(#a)"><circle cx="54.501" cy="54.501" transform="translate(9 6)" fill="#45aee4" r="54.501"/></g><path d="M76.708 82.863a1.25 1.25 0 01-.766-.265l-11.172-8.56a1.771 1.771 0 00-1.085-.372 1.794 1.794 0 00-1.168.438l-6.2 5.326a1.25 1.25 0 01-.825.313 1.315 1.315 0 01-1.253-.972l-4.3-14.593-11.118-4.375a1.411 1.411 0 01-.013-2.585l45.619-18.555a1.251 1.251 0 01.475-.1 1.283 1.283 0 01.988.482 1.421 1.421 0 01.29 1.183l-8.186 41.535a1.336 1.336 0 01-1.286 1.1zM75.47 47.674a.37.37 0 00-.2.064L53.547 61.849a2.373 2.373 0 00-.956 2.595l2.348 8.7a.555.555 0 00.538.43.561.561 0 00.559-.513l.611-4.774a4 4 0 011.152-2.344L75.726 48.37a.4.4 0 00.094-.443.39.39 0 00-.35-.253z" fill="#fff"/><path d="M53.547 61.849L75.27 47.738c.39-.253.792.3.457.632L57.799 65.946a4 4 0 00-1.152 2.345l-.611 4.773a.556.556 0 01-1.1.084l-2.345-8.704a2.366 2.366 0 01.956-2.595z" fill="#eaeaea"/></svg>