<svg xmlns="http://www.w3.org/2000/svg" width="127.001" height="127.001"><defs><filter id="a" x="0" y="0" width="127.001" height="127.001" filterUnits="userSpaceOnUse"><feOffset dy="3"/><feGaussianBlur stdDeviation="3" result="b"/><feFlood flood-opacity=".161"/><feComposite operator="in" in2="b"/><feComposite in="SourceGraphic"/></filter></defs><g filter="url(#a)"><ellipse cx="54.501" cy="54.5" rx="54.501" ry="54.5" transform="translate(9 6)" fill="#4c77a6"/></g><path d="M80.249 65.186a69.591 69.591 0 014.927 5.108 14.863 14.863 0 011.766 2.623c.679 1.355.064 2.847-1.115 2.928h-7.329a5.575 5.575 0 01-4.666-1.955c-1.015-1.065-1.954-2.2-2.93-3.3a7.013 7.013 0 00-1.319-1.209 1.511 1.511 0 00-2.441.611 8.141 8.141 0 00-.772 3.525c-.079 1.779-.6 2.247-2.334 2.328a18.279 18.279 0 01-10.487-2.328 23.471 23.471 0 01-7.056-6.81 92.512 92.512 0 01-9.29-17.064c-.586-1.345-.154-2.067 1.282-2.093 2.391-.048 4.782-.044 7.175 0a2.117 2.117 0 011.989 1.532 46.317 46.317 0 004.863 9.289 7.842 7.842 0 001.837 2.082c.85.6 1.5.4 1.9-.575a6.615 6.615 0 00.422-1.948 29.9 29.9 0 00-.122-6.829 2.812 2.812 0 00-2.352-2.6c-.7-.137-.6-.406-.257-.818a2.611 2.611 0 012.251-1.157h8.283c1.3.265 1.594.869 1.772 2.222l.007 9.484c-.014.524.254 2.077 1.169 2.424.732.247 1.215-.357 1.654-.836a29.517 29.517 0 004.663-7.394c.561-1.167 1.044-2.38 1.511-3.591a1.777 1.777 0 011.873-1.317l7.972.008a4.081 4.081 0 01.7.044c1.343.236 1.711.832 1.3 2.184a20.681 20.681 0 01-3.169 5.665c-1.329 1.9-2.751 3.727-4.07 5.635-1.211 1.742-1.115 2.62.39 4.133z" fill="#fff"/></svg>