<svg xmlns="http://www.w3.org/2000/svg" width="28.625" height="32.06" viewBox="0 0 28.625 32.06">
  <g id="layer1" transform="translate(-0.926 -289.063)">
    <path id="path1315-0" d="M9.973,289.063v4.8A14.09,14.09,0,0,0,.926,307a14.314,14.314,0,0,0,28.625,0,14.139,14.139,0,0,0-9.04-13.125v-4.807Zm1.805,1.782h6.928V293.3a14.4,14.4,0,0,0-3.441-.435H15.24a14.586,14.586,0,0,0-3.462.431Zm3.462,3.811c.417,0,.828.022,1.234.059.064,0,.127.017.19.026.269.03.533.075.8.122a12.987,12.987,0,0,1,1.819.463A12.328,12.328,0,0,1,27.753,307a12.508,12.508,0,0,1-25.015,0,12.255,12.255,0,0,1,8.416-11.667l.014,0a13.12,13.12,0,0,1,1.851-.466c.238-.043.477-.08.719-.108.093-.013.185-.026.279-.035.4-.039.811-.059,1.223-.059Zm-.014,1.827a.924.924,0,0,0-.18.026A10.544,10.544,0,0,0,4.628,306.8a.883.883,0,0,0,0,.4,10.538,10.538,0,0,0,10.217,10.275l0,0a.912.912,0,0,0,.8,0,10.484,10.484,0,0,0-.208-20.964.91.91,0,0,0-.215-.026Zm-.9,1.848h.021v1.65a.888.888,0,0,0,.433.819.913.913,0,0,0,.936,0,.888.888,0,0,0,.433-.819v-1.65a8.8,8.8,0,0,1,7.869,7.769H22.341a.895.895,0,1,0,0,1.789h1.675a8.8,8.8,0,0,1-7.869,7.769v-1.653a.885.885,0,0,0-.266-.645.909.909,0,0,0-.655-.26.9.9,0,0,0-.881.9v1.653a8.677,8.677,0,0,1-7.834-7.769H8.15a.895.895,0,1,0,0-1.789H6.511a8.678,8.678,0,0,1,7.813-7.769Zm.9,3.258a.9.9,0,0,0-.881.9v4.153a.88.88,0,0,0,.018.487.893.893,0,0,0,.486.616l3.363,3.324a.912.912,0,0,0,.889.261.9.9,0,0,0,.655-.648.886.886,0,0,0-.267-.877l-3.342-3.3v-4.017a.885.885,0,0,0-.266-.645.908.908,0,0,0-.655-.259Z" transform="translate(0 0)" fill="#ebebeb"/>
  </g>
</svg>
