<svg xmlns="http://www.w3.org/2000/svg" xmlns:xlink="http://www.w3.org/1999/xlink" width="127.001" height="127.001" viewBox="0 0 127.001 127.001"><defs><filter id="a" x="0" y="0" width="127.001" height="127.001" filterUnits="userSpaceOnUse"><feOffset dy="3" input="SourceAlpha"/><feGaussianBlur stdDeviation="3" result="b"/><feFlood flood-opacity="0.161"/><feComposite operator="in" in2="b"/><feComposite in="SourceGraphic"/></filter></defs><g transform="translate(9 6)"><g transform="matrix(1, 0, 0, 1, -9, -6)" filter="url(#a)"><ellipse cx="54.501" cy="54.501" rx="54.501" ry="54.501" transform="translate(9 6)" fill="#007ab7"/></g><path d="M31.029,39.129V26.423c0-3.036-.045-6.935-4.21-6.935-4.223,0-4.856,3.309-4.856,6.709V39.129h-8.1V12.992h7.754v3.581h.106A8.519,8.519,0,0,1,29.4,12.358c8.207,0,9.73,5.408,9.73,12.449V39.129Zm-22.282,0H.634V12.992H8.749V39.127h0Zm5.1-26.136h.015ZM0,4.714A4.706,4.706,0,1,1,4.706,9.427,4.715,4.715,0,0,1,0,4.714Z" transform="translate(34.936 33.539)" fill="#fff"/></g></svg>