<svg xmlns="http://www.w3.org/2000/svg" width="36" height="33.835" viewBox="0 0 36 33.835">
  <path id="money" d="M45.313,39.592a24.144,24.144,0,0,0-2.021-8.249,23.242,23.242,0,0,0-4.47-7.1c-1.786-1.814-3.494-2.479-4.816-1.877-.011,0-.022.006-.033.011l-1.551.731V19.27c0-.005,0-.011,0-.016,0-3.038-4.966-5.328-11.551-5.328s-11.529,2.282-11.55,5.31c0,.006,0,.012,0,.019v6.865a.55.55,0,0,1,0,.212c0,.062.005.123.009.184a.679.679,0,0,0-.009.1v6.865a.559.559,0,0,1,0,.213c0,.077.006.154.012.23a.683.683,0,0,0-.012.123v6.865a.55.55,0,0,1,0,.212c0,3.037,4.967,5.327,11.553,5.327,4.184,0,8-1.008,10-2.6,1.8,2.461,3.728,3.912,5.347,3.912a2.443,2.443,0,0,0,1.053-.231l6.1-2.876.018-.007C44.72,44.021,45.4,42.226,45.313,39.592ZM28.038,25.178l-.185.086c-1.274.6-1.917,2.258-1.939,4.528a22.661,22.661,0,0,1-5.04.551c-6.074,0-10.308-2.114-10.308-4.012a.55.55,0,0,1,0-.212V21.735c1.871,1.72,5.69,2.847,10.307,2.847s8.433-1.126,10.3-2.846V23.7ZM10.556,33.585a.671.671,0,0,0,.01-.107V28.812c1.872,1.719,5.691,2.846,10.308,2.846a24.149,24.149,0,0,0,5.094-.523,23.286,23.286,0,0,0,1.273,5.593,19.675,19.675,0,0,1-6.367.976c-6.074,0-10.308-2.114-10.308-4.011A.672.672,0,0,0,10.556,33.585ZM20.873,15.239c6.068,0,10.3,2.112,10.305,4.009,0,0,0,0,0,0v.012c-.018,1.9-4.245,4-10.3,4s-10.306-2.116-10.306-4.014S14.8,15.239,20.873,15.239Zm0,29.9c-6.074,0-10.308-2.115-10.308-4.013a.55.55,0,0,1,0-.212V36.172c1.872,1.719,5.691,2.845,10.308,2.845A20.784,20.784,0,0,0,27.7,37.951q.123.309.254.62a28.145,28.145,0,0,0,2.2,4.213C28.4,44.2,24.773,45.135,20.874,45.135Zm16.065,1.112-.176.085c-1.645.771-5.2-2.446-7.674-8.3s-2.37-10.8-.731-11.569l3.985-1.878a9.3,9.3,0,0,0-.289,2.847,24.168,24.168,0,0,0,2.021,8.252,23.243,23.243,0,0,0,4.47,7.1,8.374,8.374,0,0,0,2.2,1.67Zm5.949-2.8h0l0,0c-.82.383-2.087-.2-3.473-1.613a21.91,21.91,0,0,1-4.2-6.684A22.789,22.789,0,0,1,33.3,27.388c-.068-2.034.364-3.422,1.185-3.808a1.274,1.274,0,0,1,.548-.116,4.77,4.77,0,0,1,2.928,1.728,21.912,21.912,0,0,1,4.2,6.687,22.761,22.761,0,0,1,1.914,7.76C44.137,41.67,43.707,43.057,42.889,43.445Z" transform="translate(-9.321 -13.925)" fill="#fff"/>
</svg>
