<svg xmlns="http://www.w3.org/2000/svg" xmlns:xlink="http://www.w3.org/1999/xlink" width="127.001" height="127.002" viewBox="0 0 127.001 127.002"><defs><filter id="a" x="0" y="0" width="127.001" height="127.002" filterUnits="userSpaceOnUse"><feOffset dy="3" input="SourceAlpha"/><feGaussianBlur stdDeviation="3" result="b"/><feFlood flood-opacity="0.161"/><feComposite operator="in" in2="b"/><feComposite in="SourceGraphic"/></filter></defs><g transform="translate(9 6)"><g transform="matrix(1, 0, 0, 1, -9, -6)" filter="url(#a)"><ellipse cx="54.501" cy="54.501" rx="54.501" ry="54.501" transform="translate(9 6)" fill="#45aee4"/></g><g transform="translate(28.97 32.563)"><path d="M38.738,44.3a1.25,1.25,0,0,1-.766-.265L26.8,35.475a1.771,1.771,0,0,0-1.085-.372,1.794,1.794,0,0,0-1.168.438l-6.2,5.326a1.25,1.25,0,0,1-.825.313,1.315,1.315,0,0,1-1.253-.972l-4.3-14.593L.851,21.24a1.411,1.411,0,0,1-.013-2.585L46.457.1a1.251,1.251,0,0,1,.475-.1,1.283,1.283,0,0,1,.988.482,1.421,1.421,0,0,1,.29,1.183L40.024,43.2A1.336,1.336,0,0,1,38.738,44.3ZM37.5,9.111a.37.37,0,0,0-.2.064L15.577,23.286a2.373,2.373,0,0,0-.956,2.595l2.348,8.7a.555.555,0,0,0,.538.43.561.561,0,0,0,.559-.513l.611-4.774a4,4,0,0,1,1.152-2.344L37.756,9.807a.4.4,0,0,0,.094-.443A.39.39,0,0,0,37.5,9.111Z" transform="translate(0 0)" fill="#fff"/><path d="M1.04,14.175,22.763.064c.39-.253.792.3.457.632L5.292,18.272A4,4,0,0,0,4.14,20.617l-.611,4.773a.556.556,0,0,1-1.1.084L.084,16.77A2.366,2.366,0,0,1,1.04,14.175Z" transform="translate(14.537 9.111)" fill="#eaeaea"/></g></g></svg>