<svg xmlns="http://www.w3.org/2000/svg" xmlns:xlink="http://www.w3.org/1999/xlink" width="127.001" height="127.001" viewBox="0 0 127.001 127.001"><defs><filter id="a" x="0" y="0" width="127.001" height="127.001" filterUnits="userSpaceOnUse"><feOffset dy="3" input="SourceAlpha"/><feGaussianBlur stdDeviation="3" result="b"/><feFlood flood-opacity="0.161"/><feComposite operator="in" in2="b"/><feComposite in="SourceGraphic"/></filter></defs><g transform="translate(9 6)"><g transform="matrix(1, 0, 0, 1, -9, -6)" filter="url(#a)"><ellipse cx="54.501" cy="54.5" rx="54.501" ry="54.5" transform="translate(9 6)" fill="#4c77a6"/></g><path d="M43.3,18.66a69.591,69.591,0,0,1,4.927,5.108,14.863,14.863,0,0,1,1.766,2.623c.679,1.355.064,2.847-1.115,2.928l-7.329,0a5.575,5.575,0,0,1-4.666-1.955c-1.015-1.065-1.954-2.2-2.93-3.3a7.013,7.013,0,0,0-1.319-1.209,1.511,1.511,0,0,0-2.441.611,8.141,8.141,0,0,0-.772,3.525c-.079,1.779-.6,2.247-2.334,2.328A18.279,18.279,0,0,1,16.6,26.991a23.471,23.471,0,0,1-7.056-6.81A92.512,92.512,0,0,1,.254,3.117C-.332,1.772.1,1.05,1.536,1.024c2.391-.048,4.782-.044,7.175,0A2.117,2.117,0,0,1,10.7,2.556a46.317,46.317,0,0,0,4.863,9.289A7.842,7.842,0,0,0,17.4,13.927c.85.6,1.5.4,1.9-.575a6.615,6.615,0,0,0,.422-1.948A29.9,29.9,0,0,0,19.6,4.575a2.812,2.812,0,0,0-2.352-2.6c-.7-.137-.6-.406-.257-.818A2.611,2.611,0,0,1,19.242,0h8.283c1.3.265,1.594.869,1.772,2.222l.007,9.484c-.014.524.254,2.077,1.169,2.424.732.247,1.215-.357,1.654-.836A29.517,29.517,0,0,0,36.79,5.9c.561-1.167,1.044-2.38,1.511-3.591A1.777,1.777,0,0,1,40.174.992L48.146,1a4.081,4.081,0,0,1,.7.044c1.343.236,1.711.832,1.3,2.184a20.681,20.681,0,0,1-3.169,5.665c-1.329,1.9-2.751,3.727-4.07,5.635-1.211,1.742-1.115,2.62.39,4.133Z" transform="translate(27.949 40.526)" fill="#fff"/></g></svg>